<?xml version="1.0" encoding="UTF-8" standalone="no"?><svg xmlns="http://www.w3.org/2000/svg" xmlns:xlink="http://www.w3.org/1999/xlink" height="621" version="1.1" width="747"><defs/><g><g transform="translate(-23,-72) scale(1,1)"><rect fill="#ffffff" height="601" stroke="none" width="727" x="33" y="82"/></g><g transform="translate(-23,-72) scale(1,1)"><path d="M 33 82 L 760 82 L 760 683 L 33 683 L 33 82 Z Z" fill="none" stroke="#000000" stroke-miterlimit="10"/></g><g transform="translate(-23,-72) scale(1,1)"><g><path fill="none" stroke="none"/><text fill="#000000" font-family="Arial" font-size="24px" font-style="normal" font-weight="normal" stroke="none" text-decoration="none" x="62" y="143">CRUD</text></g></g><g transform="translate(-23,-72) scale(1,1)"><path d="M 391.58544921875 290.5 C 391.58544921875 284.1487248 396.73417401875 279 403.08544921875 279 C 409.43672441875 279 414.58544921875 284.1487248 414.58544921875 290.5 C 414.58544921875 296.8512752 409.43672441875 302 403.08544921875 302 C 396.73417401875 302 391.58544921875 296.8512752 391.58544921875 290.5 Z" fill="#C0C0C0" opacity="0.2" stroke="none"/></g><g transform="translate(-23,-72) scale(1,1)"><path d="M 384.58544921875 283.5 C 384.58544921875 277.1487248 389.73417401875 272 396.08544921875 272 C 402.43672441875 272 407.58544921875 277.1487248 407.58544921875 283.5 C 407.58544921875 289.8512752 402.43672441875 295 396.08544921875 295 C 389.73417401875 295 384.58544921875 289.8512752 384.58544921875 283.5 Z" fill="#d8f2ff" stroke="none"/></g><g transform="translate(-23,-72) scale(1,1)"><path d="M 384.58544921875 283.5 C 384.58544921875 277.1487248 389.73417401875 272 396.08544921875 272 C 402.43672441875 272 407.58544921875 277.1487248 407.58544921875 283.5 C 407.58544921875 289.8512752 402.43672441875 295 396.08544921875 295 C 389.73417401875 295 384.58544921875 289.8512752 384.58544921875 283.5 Z" fill="none" stroke="#000000" stroke-miterlimit="10"/></g><g transform="translate(-23,-72) scale(1,1)"><path d="M 224 325 L 568.1708984375 325" fill="none" stroke="#000000" stroke-miterlimit="10"/></g><g transform="translate(-23,-72) scale(1,1)"><g><path fill="none" stroke="none"/><text fill="#000000" font-family="Arial" font-size="18px" font-style="normal" font-weight="bold" stroke="none" text-decoration="none" x="296.052734375" y="319.5">CRUDControllerInterface</text></g></g><g transform="translate(-23,-72) scale(1,1)"><g><path fill="none" stroke="none"/><text fill="#000000" font-family="Arial" font-size="18px" font-style="normal" font-weight="normal" stroke="none" text-decoration="none" x="229" y="347.5">+create(): ResponseInterface</text></g></g><g transform="translate(-23,-72) scale(1,1)"><g><path fill="none" stroke="none"/><text fill="#000000" font-family="Arial" font-size="18px" font-style="normal" font-weight="normal" stroke="none" text-decoration="none" x="229" y="367.5">+retrieve(id: int = null): ResponseInterface</text></g></g><g transform="translate(-23,-72) scale(1,1)"><g><path fill="none" stroke="none"/><text fill="#000000" font-family="Arial" font-size="18px" font-style="normal" font-weight="normal" stroke="none" text-decoration="none" x="229" y="387.5">+update(): ResponseInterface</text></g></g><g transform="translate(-23,-72) scale(1,1)"><g><path fill="none" stroke="none"/><text fill="#000000" font-family="Arial" font-size="18px" font-style="normal" font-weight="normal" stroke="none" text-decoration="none" x="229" y="407.5">+delete(id: int = null): ResponseInterface</text></g></g><g transform="translate(-23,-72) scale(1,1)"><path d="M 96 544 L 685 544 L 695 554 L 695 639 L 96 639 L 96 544" fill="#ffff00" stroke="none"/></g><g transform="translate(-23,-72) scale(1,1)"><path d="M 96 544 L 685 544 L 695 554 L 695 639 L 96 639 L 96 544 L 96 544" fill="none" stroke="#000000" stroke-miterlimit="10"/></g><g transform="translate(-23,-72) scale(1,1)"><path d="M 685 544 L 685 554 L 695 554 L 685 544" fill="none" stroke="#000000" stroke-miterlimit="10"/></g><g transform="translate(-23,-72) scale(1,1)"><g><path fill="none" stroke="none"/><text fill="#000000" font-family="Arial" font-size="18px" font-style="normal" font-weight="normal" stroke="none" text-decoration="none" x="101" y="567">Have an optionnal "id" parameter. </text></g></g><g transform="translate(-23,-72) scale(1,1)"><g><path fill="none" stroke="none"/><text fill="#000000" font-family="Arial" font-size="18px" font-style="normal" font-weight="normal" stroke="none" text-decoration="none" x="101" y="587">If present, query or exec for the identified resource, otherwise for all</text><text fill="#000000" font-family="Arial" font-size="18px" font-style="normal" font-weight="normal" stroke="none" text-decoration="none" x="101" y="605">resources.</text></g></g><g transform="translate(-23,-72) scale(1,1)"><path d="M 120 544 L 120 360 L 224 360" fill="none" stroke="#000000" stroke-dasharray="3" stroke-miterlimit="10"/></g><g transform="translate(-23,-72) scale(1,1)"><path d="M 160 544 L 160 400 L 224 400" fill="none" stroke="#000000" stroke-dasharray="3" stroke-miterlimit="10"/></g></g></svg>