<?xml version="1.0" encoding="UTF-8" standalone="no"?><svg xmlns="http://www.w3.org/2000/svg" xmlns:xlink="http://www.w3.org/1999/xlink" height="621" version="1.1" width="747"><defs/><g><g transform="translate(-62,-31) scale(1,1)"><rect fill="#ffffff" height="601" stroke="none" width="727" x="72" y="41"/></g><g transform="translate(-62,-31) scale(1,1)"><path d="M 72 41 L 799 41 L 799 642 L 72 642 L 72 41 Z Z" fill="none" stroke="#000000" stroke-miterlimit="10"/></g><g transform="translate(-62,-31) scale(1,1)"><path d="M 181 178 L 316.72998046875 178 L 316.72998046875 343 L 181 343" fill="#C0C0C0" opacity="0.2" stroke="none"/></g><g transform="translate(-62,-31) scale(1,1)"><path d="M 181 178 L 191 168 L 326.72998046875 168 L 316.72998046875 178" fill="#C0C0C0" opacity="0.2" stroke="none"/></g><g transform="translate(-62,-31) scale(1,1)"><path d="M 326.72998046875 168 L 316.72998046875 178 L 316.72998046875 343 L 326.72998046875 333" fill="#C0C0C0" opacity="0.2" stroke="none"/></g><g transform="translate(-62,-31) scale(1,1)"><path d="M 174 171 L 309.72998046875 171 L 309.72998046875 336 L 174 336" fill="#ffffff" stroke="none"/></g><g transform="translate(-62,-31) scale(1,1)"><path d="M 174 171 L 184 161 L 319.72998046875 161 L 309.72998046875 171" fill="#ffffff" stroke="none"/></g><g transform="translate(-62,-31) scale(1,1)"><path d="M 319.72998046875 161 L 309.72998046875 171 L 309.72998046875 336 L 319.72998046875 326" fill="#ffffff" stroke="none"/></g><g transform="translate(-62,-31) scale(1,1)"><path d="M 174 171 L 309.72998046875 171 L 309.72998046875 336 L 174 336 L 174 171" fill="none" stroke="#000000" stroke-miterlimit="10"/></g><g transform="translate(-62,-31) scale(1,1)"><path d="M 174 171 L 184 161 L 319.72998046875 161 L 309.72998046875 171 L 174 171" fill="none" stroke="#000000" stroke-miterlimit="10"/></g><g transform="translate(-62,-31) scale(1,1)"><path d="M 319.72998046875 161 L 309.72998046875 171 L 309.72998046875 336 L 319.72998046875 326 L 319.72998046875 161" fill="none" stroke="#000000" stroke-miterlimit="10"/></g><g transform="translate(-62,-31) scale(1,1)"><g><path fill="none" stroke="none"/><text fill="#000000" font-family="Arial" font-size="13px" font-style="normal" font-weight="bold" stroke="none" text-decoration="none" x="225.02001953125" y="190.5">config</text></g></g><g transform="translate(-62,-31) scale(1,1)"><g><path fill="none" stroke="none"/><text fill="#000000" font-family="Arial" font-size="24px" font-style="normal" font-weight="normal" stroke="none" text-decoration="none" x="101" y="102">Database</text></g></g><g transform="translate(-62,-31) scale(1,1)"><path d="M 227.24814453125 227 L 254.68814453125003 227 L 266.44814453125 238.76 L 266.44814453125 276 L 227.24814453125 276" fill="#C0C0C0" opacity="0.2" stroke="none"/></g><g transform="translate(-62,-31) scale(1,1)"><path d="M 220.24814453124998 220 L 247.68814453125 220 L 259.44814453125 231.76000000000002 L 259.44814453125 269 L 220.24814453124998 269" fill="#e2e2e2" stroke="none"/></g><g transform="translate(-62,-31) scale(1,1)"><path d="M 220.24814453124998 220 L 247.68814453125 220 L 259.44814453125 231.76000000000002 L 259.44814453125 269 L 220.24814453124998 269 L 220.24814453124998 220" fill="none" stroke="#000000" stroke-miterlimit="10"/></g><g transform="translate(-62,-31) scale(1,1)"><path d="M 247.68814453125 220 L 247.68814453125 231.76000000000002 L 259.44814453125 231.76000000000002 L 247.68814453125 220" fill="none" stroke="#000000" stroke-miterlimit="10"/></g><g transform="translate(-62,-31) scale(1,1)"><g><path fill="none" stroke="none"/><text fill="#000000" font-family="Arial" font-size="13px" font-style="normal" font-weight="bold" stroke="none" text-decoration="none" x="199.372314453125" y="288.5">database.json</text></g></g><g transform="translate(-62,-31) scale(1,1)"><path d="M 167 434 L 492 434 L 502 444 L 502 591 L 167 591 L 167 434" fill="#ffff00" stroke="none"/></g><g transform="translate(-62,-31) scale(1,1)"><path d="M 167 434 L 492 434 L 502 444 L 502 591 L 167 591 L 167 434 L 167 434" fill="none" stroke="#000000" stroke-miterlimit="10"/></g><g transform="translate(-62,-31) scale(1,1)"><path d="M 492 434 L 492 444 L 502 444 L 492 434" fill="none" stroke="#000000" stroke-miterlimit="10"/></g><g transform="translate(-62,-31) scale(1,1)"><g><path fill="none" stroke="none"/><text fill="#000000" font-family="Arial" font-size="13px" font-style="normal" font-weight="normal" stroke="none" text-decoration="none" x="172" y="452">{</text></g></g><g transform="translate(-62,-31) scale(1,1)"><g><path fill="none" stroke="none"/><text fill="#000000" font-family="Arial" font-size="13px" font-style="normal" font-weight="normal" stroke="none" text-decoration="none" x="172" y="467">  "driver": "DRIVER",</text></g></g><g transform="translate(-62,-31) scale(1,1)"><g><path fill="none" stroke="none"/><text fill="#000000" font-family="Arial" font-size="13px" font-style="normal" font-weight="normal" stroke="none" text-decoration="none" x="172" y="482">  "host": "HOST",</text></g></g><g transform="translate(-62,-31) scale(1,1)"><g><path fill="none" stroke="none"/><text fill="#000000" font-family="Arial" font-size="13px" font-style="normal" font-weight="normal" stroke="none" text-decoration="none" x="172" y="497">  "port": "POST",</text></g></g><g transform="translate(-62,-31) scale(1,1)"><g><path fill="none" stroke="none"/><text fill="#000000" font-family="Arial" font-size="13px" font-style="normal" font-weight="normal" stroke="none" text-decoration="none" x="172" y="512">  "user": "USER",</text></g></g><g transform="translate(-62,-31) scale(1,1)"><g><path fill="none" stroke="none"/><text fill="#000000" font-family="Arial" font-size="13px" font-style="normal" font-weight="normal" stroke="none" text-decoration="none" x="172" y="527">  "password": "PASSWORD",</text></g></g><g transform="translate(-62,-31) scale(1,1)"><g><path fill="none" stroke="none"/><text fill="#000000" font-family="Arial" font-size="13px" font-style="normal" font-weight="normal" stroke="none" text-decoration="none" x="172" y="542">  "database": "DATABASE",</text></g></g><g transform="translate(-62,-31) scale(1,1)"><g><path fill="none" stroke="none"/><text fill="#000000" font-family="Arial" font-size="13px" font-style="normal" font-weight="normal" stroke="none" text-decoration="none" x="172" y="557">  "charset": "CHARSET"</text></g></g><g transform="translate(-62,-31) scale(1,1)"><g><path fill="none" stroke="none"/><text fill="#000000" font-family="Arial" font-size="13px" font-style="normal" font-weight="normal" stroke="none" text-decoration="none" x="172" y="572">}</text></g></g><g transform="translate(-62,-31) scale(1,1)"><path d="M 240 434 L 240 294" fill="none" stroke="#000000" stroke-dasharray="3" stroke-miterlimit="10"/></g><g transform="translate(-62,-31) scale(1,1)"><path d="M 487 169 L 692 169 L 692 342 L 487 342" fill="#C0C0C0" opacity="0.2" stroke="none"/></g><g transform="translate(-62,-31) scale(1,1)"><path d="M 487 169 L 497 159 L 702 159 L 692 169" fill="#C0C0C0" opacity="0.2" stroke="none"/></g><g transform="translate(-62,-31) scale(1,1)"><path d="M 702 159 L 692 169 L 692 342 L 702 332" fill="#C0C0C0" opacity="0.2" stroke="none"/></g><g transform="translate(-62,-31) scale(1,1)"><path d="M 480 162 L 685 162 L 685 335 L 480 335" fill="#ffffff" stroke="none"/></g><g transform="translate(-62,-31) scale(1,1)"><path d="M 480 162 L 490 152 L 695 152 L 685 162" fill="#ffffff" stroke="none"/></g><g transform="translate(-62,-31) scale(1,1)"><path d="M 695 152 L 685 162 L 685 335 L 695 325" fill="#ffffff" stroke="none"/></g><g transform="translate(-62,-31) scale(1,1)"><path d="M 480 162 L 685 162 L 685 335 L 480 335 L 480 162" fill="none" stroke="#000000" stroke-miterlimit="10"/></g><g transform="translate(-62,-31) scale(1,1)"><path d="M 480 162 L 490 152 L 695 152 L 685 162 L 480 162" fill="none" stroke="#000000" stroke-miterlimit="10"/></g><g transform="translate(-62,-31) scale(1,1)"><path d="M 695 152 L 685 162 L 685 335 L 695 325 L 695 152" fill="none" stroke="#000000" stroke-miterlimit="10"/></g><g transform="translate(-62,-31) scale(1,1)"><g><path fill="none" stroke="none"/><text fill="#000000" font-family="Arial" font-size="13px" font-style="normal" font-weight="bold" stroke="none" text-decoration="none" x="574.33544921875" y="181.5">src</text></g></g><g transform="translate(-62,-31) scale(1,1)"><path d="M 511 209 L 660 209 L 660 326 L 511 326" fill="#C0C0C0" opacity="0.2" stroke="none"/></g><g transform="translate(-62,-31) scale(1,1)"><path d="M 511 209 L 521 199 L 670 199 L 660 209" fill="#C0C0C0" opacity="0.2" stroke="none"/></g><g transform="translate(-62,-31) scale(1,1)"><path d="M 670 199 L 660 209 L 660 326 L 670 316" fill="#C0C0C0" opacity="0.2" stroke="none"/></g><g transform="translate(-62,-31) scale(1,1)"><path d="M 504 202 L 653 202 L 653 319 L 504 319" fill="#ffffff" stroke="none"/></g><g transform="translate(-62,-31) scale(1,1)"><path d="M 504 202 L 514 192 L 663 192 L 653 202" fill="#ffffff" stroke="none"/></g><g transform="translate(-62,-31) scale(1,1)"><path d="M 663 192 L 653 202 L 653 319 L 663 309" fill="#ffffff" stroke="none"/></g><g transform="translate(-62,-31) scale(1,1)"><path d="M 504 202 L 653 202 L 653 319 L 504 319 L 504 202" fill="none" stroke="#000000" stroke-miterlimit="10"/></g><g transform="translate(-62,-31) scale(1,1)"><path d="M 504 202 L 514 192 L 663 192 L 653 202 L 504 202" fill="none" stroke="#000000" stroke-miterlimit="10"/></g><g transform="translate(-62,-31) scale(1,1)"><path d="M 663 192 L 653 202 L 653 319 L 663 309 L 663 192" fill="none" stroke="#000000" stroke-miterlimit="10"/></g><g transform="translate(-62,-31) scale(1,1)"><g><path fill="none" stroke="none"/><text fill="#000000" font-family="Arial" font-size="13px" font-style="normal" font-weight="bold" stroke="none" text-decoration="none" x="551.175048828125" y="221.5">Database</text></g></g><g transform="translate(-62,-31) scale(1,1)"><path d="M 567.988623046875 247 L 595.428623046875 247 L 607.188623046875 258.76 L 607.188623046875 296 L 567.988623046875 296" fill="#C0C0C0" opacity="0.2" stroke="none"/></g><g transform="translate(-62,-31) scale(1,1)"><path d="M 560.988623046875 240 L 588.428623046875 240 L 600.188623046875 251.76000000000002 L 600.188623046875 289 L 560.988623046875 289" fill="#6dceff" stroke="none"/></g><g transform="translate(-62,-31) scale(1,1)"><path d="M 560.988623046875 240 L 588.428623046875 240 L 600.188623046875 251.76000000000002 L 600.188623046875 289 L 560.988623046875 289 L 560.988623046875 240" fill="none" stroke="#000000" stroke-miterlimit="10"/></g><g transform="translate(-62,-31) scale(1,1)"><path d="M 588.428623046875 240 L 588.428623046875 251.76000000000002 L 600.188623046875 251.76000000000002 L 588.428623046875 240" fill="none" stroke="#000000" stroke-miterlimit="10"/></g><g transform="translate(-62,-31) scale(1,1)"><g><path fill="none" stroke="none"/><text fill="#000000" font-family="Arial" font-size="13px" font-style="normal" font-weight="bold" stroke="none" text-decoration="none" x="542.642333984375" y="308.5">Manager.php</text></g></g><g transform="translate(-62,-31) scale(1,1)"><path d="M 536 256 L 288 256" fill="none" stroke="#000000" stroke-dasharray="3" stroke-miterlimit="10"/></g><g transform="translate(-62,-31) scale(1,1)"><path d="M 298.16267485762415 251.790482243984 L 288 256 L 298.16267485762415 260.209517756016" fill="none" stroke="#000000" stroke-miterlimit="10"/></g><g transform="translate(-62,-31) scale(1,1)"><g><path fill="none" stroke="none"/><text fill="#000000" font-family="Arial" font-size="13px" font-style="normal" font-weight="normal" stroke="none" text-decoration="none" x="371.5" y="163.5">«include»</text></g></g></g></svg>