<?xml version="1.0" encoding="UTF-8" standalone="no"?><svg xmlns="http://www.w3.org/2000/svg" xmlns:xlink="http://www.w3.org/1999/xlink" height="684" version="1.1" width="744"><defs/><g><g transform="translate(-42,-46) scale(1,1)"><rect fill="#ffffff" height="664" stroke="none" width="724" x="52" y="56"/></g><g transform="translate(-42,-46) scale(1,1)"><path d="M 52 56 L 776 56 L 776 720 L 52 720 L 52 56 Z Z" fill="none" stroke="#000000" stroke-miterlimit="10"/></g><g transform="translate(-42,-46) scale(1,1)"><g><path fill="none" stroke="none"/><text fill="#000000" font-family="Arial" font-size="24px" font-style="normal" font-weight="normal" stroke="none" text-decoration="none" x="81" y="117">Routing</text></g></g><g transform="translate(-42,-46) scale(1,1)"><path d="M 127 208.5 C 127 203.2532944 131.2532944 199 136.5 199 C 141.7467056 199 146 203.2532944 146 208.5 C 146 213.7467056 141.7467056 218 136.5 218 C 131.2532944 218 127 213.7467056 127 208.5 Z" fill="#C0C0C0" opacity="0.2" stroke="none"/></g><g transform="translate(-42,-46) scale(1,1)"><path d="M 120 201.5 C 120 196.2532944 124.2532944 192 129.5 192 C 134.7467056 192 139 196.2532944 139 201.5 C 139 206.7467056 134.7467056 211 129.5 211 C 124.2532944 211 120 206.7467056 120 201.5 Z" fill="#000000" stroke="none"/></g><g transform="translate(-42,-46) scale(1,1)"><path d="M 711 587.5 C 711 580.59644 716.59644 575 723.5 575 C 730.40356 575 736 580.59644 736 587.5 C 736 594.40356 730.40356 600 723.5 600 C 716.59644 600 711 594.40356 711 587.5 Z" fill="#C0C0C0" opacity="0.2" stroke="none"/></g><g transform="translate(-42,-46) scale(1,1)"><path d="M 704 580.5 C 704 573.59644 709.59644 568 716.5 568 C 723.40356 568 729 573.59644 729 580.5 C 729 587.40356 723.40356 593 716.5 593 C 709.59644 593 704 587.40356 704 580.5 Z" fill="none" stroke="#000000" stroke-miterlimit="10"/></g><g transform="translate(-42,-46) scale(1,1)"><path d="M 709 580.5 C 709 576.357864 712.357864 573 716.5 573 C 720.642136 573 724 576.357864 724 580.5 C 724 584.642136 720.642136 588 716.5 588 C 712.357864 588 709 584.642136 709 580.5 Z" fill="#000000" stroke="none"/></g><g transform="translate(-42,-46) scale(1,1)"><path d="M 225 198 L 320.91357421875 198 Q 330.91357421875 198 330.91357421875 208 L 330.91357421875 228 Q 330.91357421875 238 320.91357421875 238 L 225 238 Q 215 238 215 228 L 215 208 Q 215 198 225 198 Z" fill="#C0C0C0" opacity="0.2" stroke="none"/></g><g transform="translate(-42,-46) scale(1,1)"><path d="M 218 191 L 313.91357421875 191 Q 323.91357421875 191 323.91357421875 201 L 323.91357421875 221 Q 323.91357421875 231 313.91357421875 231 L 218 231 Q 208 231 208 221 L 208 201 Q 208 191 218 191 Z" fill="#e2e2e2" stroke="none"/></g><g transform="translate(-42,-46) scale(1,1)"><path d="M 218 191 L 313.91357421875 191 Q 323.91357421875 191 323.91357421875 201 L 323.91357421875 221 Q 323.91357421875 231 313.91357421875 231 L 218 231 Q 208 231 208 221 L 208 201 Q 208 191 218 191 Z" fill="none" stroke="#000000" stroke-miterlimit="10"/></g><g transform="translate(-42,-46) scale(1,1)"><g><path fill="none" stroke="none"/><text fill="#000000" font-family="Arial" font-size="13px" font-style="normal" font-weight="bold" stroke="none" text-decoration="none" x="216.81005859375" y="210.5">file_get_contents</text></g></g><g transform="translate(-42,-46) scale(1,1)"><rect fill="#ffffff" height="17" stroke="none" width="17" x="233" y="175"/></g><g transform="translate(-42,-46) scale(1,1)"><path d="M 233 175 L 250 175 L 250 192 L 233 192 L 233 175 Z Z" fill="none" stroke="#000000" stroke-miterlimit="10"/></g><g transform="translate(-42,-46) scale(1,1)"><path d="M 241 190 L 241 177" fill="none" stroke="#000000" stroke-miterlimit="10"/></g><g transform="translate(-42,-46) scale(1,1)"><path d="M 241 190 L 238 187" fill="none" stroke="#000000" stroke-miterlimit="10"/></g><g transform="translate(-42,-46) scale(1,1)"><path d="M 241 190 L 244 187" fill="none" stroke="#000000" stroke-miterlimit="10"/></g><g transform="translate(-42,-46) scale(1,1)"><g><path fill="none" stroke="none"/><text fill="#000000" font-family="Arial" font-size="13px" font-style="normal" font-weight="normal" stroke="none" text-decoration="none" x="265.431396484375" y="180.5">filename</text></g></g><g transform="translate(-42,-46) scale(1,1)"><rect fill="#ffffff" height="17" stroke="none" width="17" x="232" y="231"/></g><g transform="translate(-42,-46) scale(1,1)"><path d="M 232 231 L 249 231 L 249 248 L 232 248 L 232 231 Z Z" fill="none" stroke="#000000" stroke-miterlimit="10"/></g><g transform="translate(-42,-46) scale(1,1)"><path d="M 240 246 L 240 233" fill="none" stroke="#000000" stroke-miterlimit="10"/></g><g transform="translate(-42,-46) scale(1,1)"><path d="M 240 246 L 237 243" fill="none" stroke="#000000" stroke-miterlimit="10"/></g><g transform="translate(-42,-46) scale(1,1)"><path d="M 240 246 L 243 243" fill="none" stroke="#000000" stroke-miterlimit="10"/></g><g transform="translate(-42,-46) scale(1,1)"><g><path fill="none" stroke="none"/><text fill="#000000" font-family="Arial" font-size="13px" font-style="normal" font-weight="normal" stroke="none" text-decoration="none" x="268.67822265625" y="250.5">content</text></g></g><g transform="translate(-42,-46) scale(1,1)"><path d="M 433 198 L 528.91357421875 198 Q 538.91357421875 198 538.91357421875 208 L 538.91357421875 228 Q 538.91357421875 238 528.91357421875 238 L 433 238 Q 423 238 423 228 L 423 208 Q 423 198 433 198 Z" fill="#C0C0C0" opacity="0.2" stroke="none"/></g><g transform="translate(-42,-46) scale(1,1)"><path d="M 426 191 L 521.91357421875 191 Q 531.91357421875 191 531.91357421875 201 L 531.91357421875 221 Q 531.91357421875 231 521.91357421875 231 L 426 231 Q 416 231 416 221 L 416 201 Q 416 191 426 191 Z" fill="#e2e2e2" stroke="none"/></g><g transform="translate(-42,-46) scale(1,1)"><path d="M 426 191 L 521.91357421875 191 Q 531.91357421875 191 531.91357421875 201 L 531.91357421875 221 Q 531.91357421875 231 521.91357421875 231 L 426 231 Q 416 231 416 221 L 416 201 Q 416 191 426 191 Z" fill="none" stroke="#000000" stroke-miterlimit="10"/></g><g transform="translate(-42,-46) scale(1,1)"><g><path fill="none" stroke="none"/><text fill="#000000" font-family="Arial" font-size="13px" font-style="normal" font-weight="bold" stroke="none" text-decoration="none" x="437.0927734375" y="210.5">json_decode</text></g></g><g transform="translate(-42,-46) scale(1,1)"><rect fill="#ffffff" height="17" stroke="none" width="17" x="448" y="175"/></g><g transform="translate(-42,-46) scale(1,1)"><path d="M 448 175 L 465 175 L 465 192 L 448 192 L 448 175 Z Z" fill="none" stroke="#000000" stroke-miterlimit="10"/></g><g transform="translate(-42,-46) scale(1,1)"><path d="M 456 190 L 456 177" fill="none" stroke="#000000" stroke-miterlimit="10"/></g><g transform="translate(-42,-46) scale(1,1)"><path d="M 456 190 L 453 187" fill="none" stroke="#000000" stroke-miterlimit="10"/></g><g transform="translate(-42,-46) scale(1,1)"><path d="M 456 190 L 459 187" fill="none" stroke="#000000" stroke-miterlimit="10"/></g><g transform="translate(-42,-46) scale(1,1)"><g><path fill="none" stroke="none"/><text fill="#000000" font-family="Arial" font-size="13px" font-style="normal" font-weight="normal" stroke="none" text-decoration="none" x="474.67822265625" y="188.5">content</text></g></g><g transform="translate(-42,-46) scale(1,1)"><rect fill="#ffffff" height="17" stroke="none" width="17" x="448" y="231"/></g><g transform="translate(-42,-46) scale(1,1)"><path d="M 448 231 L 465 231 L 465 248 L 448 248 L 448 231 Z Z" fill="none" stroke="#000000" stroke-miterlimit="10"/></g><g transform="translate(-42,-46) scale(1,1)"><path d="M 456 246 L 456 233" fill="none" stroke="#000000" stroke-miterlimit="10"/></g><g transform="translate(-42,-46) scale(1,1)"><path d="M 456 246 L 453 243" fill="none" stroke="#000000" stroke-miterlimit="10"/></g><g transform="translate(-42,-46) scale(1,1)"><path d="M 456 246 L 459 243" fill="none" stroke="#000000" stroke-miterlimit="10"/></g><g transform="translate(-42,-46) scale(1,1)"><g><path fill="none" stroke="none"/><text fill="#000000" font-family="Arial" font-size="13px" font-style="normal" font-weight="normal" stroke="none" text-decoration="none" x="470.9345703125" y="247.5">routes</text></g></g><g transform="translate(-42,-46) scale(1,1)"><path d="M 209 303 L 581 303 Q 591 303 591 313 L 591 669 Q 591 679 581 679 L 209 679 Q 199 679 199 669 L 199 313 Q 199 303 209 303 Z" fill="#C0C0C0" opacity="0.2" stroke="none"/></g><g transform="translate(-42,-46) scale(1,1)"><path d="M 202 296 L 574 296 Q 584 296 584 306 L 584 662 Q 584 672 574 672 L 202 672 Q 192 672 192 662 L 192 306 Q 192 296 202 296 Z" fill="#d8f2ff" stroke="none"/></g><g transform="translate(-42,-46) scale(1,1)"><path d="M 202 296 L 574 296 Q 584 296 584 306 L 584 662 Q 584 672 574 672 L 202 672 Q 192 672 192 662 L 192 306 Q 192 296 202 296 Z" fill="none" stroke="#000000" stroke-dasharray="3" stroke-miterlimit="10"/></g><g transform="translate(-42,-46) scale(1,1)"><g><path fill="none" stroke="none"/><text fill="#000000" font-family="Arial" font-size="13px" font-style="normal" font-weight="normal" stroke="none" text-decoration="none" x="197" y="313.5">«iterative»</text></g></g><g transform="translate(-42,-46) scale(1,1)"><g><path fill="none" stroke="none"/><text fill="#000000" font-family="Arial" font-size="13px" font-style="normal" font-weight="bold" stroke="none" text-decoration="none" x="313.20556640625" y="328.5">Matching and Dispatching</text></g></g><g transform="translate(-42,-46) scale(1,1)"><path d="M 234 376.5 C 234 371.2532944 238.2532944 367 243.5 367 C 248.7467056 367 253 371.2532944 253 376.5 C 253 381.7467056 248.7467056 386 243.5 386 C 238.2532944 386 234 381.7467056 234 376.5 Z" fill="#C0C0C0" opacity="0.2" stroke="none"/></g><g transform="translate(-42,-46) scale(1,1)"><path d="M 227 369.5 C 227 364.2532944 231.2532944 360 236.5 360 C 241.7467056 360 246 364.2532944 246 369.5 C 246 374.7467056 241.7467056 379 236.5 379 C 231.2532944 379 227 374.7467056 227 369.5 Z" fill="#000000" stroke="none"/></g><g transform="translate(-42,-46) scale(1,1)"><path d="M 139 205 L 208 205" fill="none" stroke="#000000" stroke-miterlimit="10"/></g><g transform="translate(-42,-46) scale(1,1)"><path d="M 197.83732514237585 209.209517756016 L 208 205 L 197.83732514237585 200.790482243984" fill="none" stroke="#000000" stroke-miterlimit="10"/></g><g transform="translate(-42,-46) scale(1,1)"><path d="M 324 212 L 416 212" fill="none" stroke="#000000" stroke-miterlimit="10"/></g><g transform="translate(-42,-46) scale(1,1)"><path d="M 405.83732514237585 216.209517756016 L 416 212 L 405.83732514237585 207.790482243984" fill="none" stroke="#000000" stroke-miterlimit="10"/></g><g transform="translate(-42,-46) scale(1,1)"><path d="M 532 216 L 544 216 L 544 296" fill="none" stroke="#000000" stroke-miterlimit="10"/></g><g transform="translate(-42,-46) scale(1,1)"><path d="M 539.790482243984 285.83732514237585 L 544 296 L 548.209517756016 285.83732514237585" fill="none" stroke="#000000" stroke-miterlimit="10"/></g><g transform="translate(-42,-46) scale(1,1)"><rect fill="#ffffff" height="17" stroke="none" width="71" x="216" y="280"/></g><g transform="translate(-42,-46) scale(1,1)"><path d="M 216 280 L 287 280 L 287 297 L 216 297 L 216 280 Z Z" fill="none" stroke="#000000" stroke-miterlimit="10"/></g><g transform="translate(-42,-46) scale(1,1)"><rect fill="#ffffff" height="17" stroke="none" width="71" x="216" y="280"/></g><g transform="translate(-42,-46) scale(1,1)"><path d="M 216 280 L 287 280 L 287 297 L 216 297 L 216 280 Z Z" fill="none" stroke="#000000" stroke-miterlimit="10"/></g><g transform="translate(-42,-46) scale(1,1)"><path d="M 234 280 L 234 297" fill="none" stroke="#000000" stroke-miterlimit="10"/></g><g transform="translate(-42,-46) scale(1,1)"><path d="M 252 280 L 252 297" fill="none" stroke="#000000" stroke-miterlimit="10"/></g><g transform="translate(-42,-46) scale(1,1)"><path d="M 270 280 L 270 297" fill="none" stroke="#000000" stroke-miterlimit="10"/></g><g transform="translate(-42,-46) scale(1,1)"><g><path fill="none" stroke="none"/><text fill="#000000" font-family="Arial" font-size="13px" font-style="normal" font-weight="normal" stroke="none" text-decoration="none" x="300.9345703125" y="293.5">routes</text></g></g><g transform="translate(-42,-46) scale(1,1)"><path d="M 231 587.5 C 231 580.59644 236.59644 575 243.5 575 C 250.40356 575 256 580.59644 256 587.5 C 256 594.40356 250.40356 600 243.5 600 C 236.59644 600 231 594.40356 231 587.5 Z" fill="#C0C0C0" opacity="0.2" stroke="none"/></g><g transform="translate(-42,-46) scale(1,1)"><path d="M 224 580.5 C 224 573.59644 229.59644 568 236.5 568 C 243.40356 568 249 573.59644 249 580.5 C 249 587.40356 243.40356 593 236.5 593 C 229.59644 593 224 587.40356 224 580.5 Z" fill="none" stroke="#000000" stroke-miterlimit="10"/></g><g transform="translate(-42,-46) scale(1,1)"><path d="M 229 580.5 C 229 576.357864 232.357864 573 236.5 573 C 240.642136 573 244 576.357864 244 580.5 C 244 584.642136 240.642136 588 236.5 588 C 232.357864 588 229 584.642136 229 580.5 Z" fill="#000000" stroke="none"/></g><g transform="translate(-42,-46) scale(1,1)"><path d="M 232 448.5 L 243.5 439 L 254 448.5 L 243.5 457 L 232 448.5" fill="#C0C0C0" opacity="0.2" stroke="none"/></g><g transform="translate(-42,-46) scale(1,1)"><path d="M 225 441 L 236 432 L 247 441 L 236 450 L 225 441" fill="#ff38ff" stroke="none"/></g><g transform="translate(-42,-46) scale(1,1)"><path d="M 225 441 L 236 432 L 247 441 L 236 450 L 225 441 L 225 441" fill="none" stroke="#000000" stroke-miterlimit="10"/></g><g transform="translate(-42,-46) scale(1,1)"><path d="M 235 379 L 235 432" fill="none" stroke="#000000" stroke-miterlimit="10"/></g><g transform="translate(-42,-46) scale(1,1)"><path d="M 230.790482243984 421.83732514237585 L 235 432 L 239.209517756016 421.83732514237585" fill="none" stroke="#000000" stroke-miterlimit="10"/></g><g transform="translate(-42,-46) scale(1,1)"><path d="M 461 359 L 526.60986328125 359 Q 536.60986328125 359 536.60986328125 369 L 536.60986328125 402 Q 536.60986328125 412 526.60986328125 412 L 461 412 Q 451 412 451 402 L 451 369 Q 451 359 461 359 Z" fill="#C0C0C0" opacity="0.2" stroke="none"/></g><g transform="translate(-42,-46) scale(1,1)"><path d="M 454 352 L 519.60986328125 352 Q 529.60986328125 352 529.60986328125 362 L 529.60986328125 395 Q 529.60986328125 405 519.60986328125 405 L 454 405 Q 444 405 444 395 L 444 362 Q 444 352 454 352 Z" fill="#a3e0ff" stroke="none"/></g><g transform="translate(-42,-46) scale(1,1)"><path d="M 454 352 L 519.60986328125 352 Q 529.60986328125 352 529.60986328125 362 L 529.60986328125 395 Q 529.60986328125 405 519.60986328125 405 L 454 405 Q 444 405 444 395 L 444 362 Q 444 352 454 352 Z" fill="none" stroke="#000000" stroke-miterlimit="10"/></g><g transform="translate(-42,-46) scale(1,1)"><g><path fill="none" stroke="none"/><text fill="#000000" font-family="Arial" font-size="13px" font-style="normal" font-weight="normal" stroke="none" text-decoration="none" x="448.5" y="369.5">«instanciate»</text></g></g><g transform="translate(-42,-46) scale(1,1)"><g><path fill="none" stroke="none"/><text fill="#000000" font-family="Arial" font-size="13px" font-style="normal" font-weight="bold" stroke="none" text-decoration="none" x="458.627685546875" y="384.5">Controller</text></g></g><g transform="translate(-42,-46) scale(1,1)"><path d="M 247 440 L 424 440 L 424 376 L 444 376" fill="none" stroke="#000000" stroke-miterlimit="10"/></g><g transform="translate(-42,-46) scale(1,1)"><path d="M 433.83732514237585 380.209517756016 L 444 376 L 433.83732514237585 371.790482243984" fill="none" stroke="#000000" stroke-miterlimit="10"/></g><g transform="translate(-42,-46) scale(1,1)"><g><path fill="none" stroke="none"/><text fill="#000000" font-family="Arial" font-size="13px" font-style="normal" font-weight="normal" stroke="none" text-decoration="none" x="254.5" y="428.5"> [request.path == route.path]</text></g></g><g transform="translate(-42,-46) scale(1,1)"><path d="M 482 504.5 L 493.5 495 L 504 504.5 L 493.5 513 L 482 504.5" fill="#C0C0C0" opacity="0.2" stroke="none"/></g><g transform="translate(-42,-46) scale(1,1)"><path d="M 475 497 L 486 488 L 497 497 L 486 506 L 475 497" fill="#ff38ff" stroke="none"/></g><g transform="translate(-42,-46) scale(1,1)"><path d="M 475 497 L 486 488 L 497 497 L 486 506 L 475 497 L 475 497" fill="none" stroke="#000000" stroke-miterlimit="10"/></g><g transform="translate(-42,-46) scale(1,1)"><path d="M 488 405 L 488 488" fill="none" stroke="#000000" stroke-miterlimit="10"/></g><g transform="translate(-42,-46) scale(1,1)"><path d="M 483.790482243984 477.83732514237585 L 488 488 L 492.209517756016 477.83732514237585" fill="none" stroke="#000000" stroke-miterlimit="10"/></g><g transform="translate(-42,-46) scale(1,1)"><g><path fill="none" stroke="none"/><text fill="#000000" font-family="Arial" font-size="13px" font-style="normal" font-weight="normal" stroke="none" text-decoration="none" x="255.489990234375" y="483.5"> [request.method != route.method]</text></g></g><g transform="translate(-42,-46) scale(1,1)"><path d="M 461 561 L 526.60986328125 561 Q 536.60986328125 561 536.60986328125 571 L 536.60986328125 604 Q 536.60986328125 614 526.60986328125 614 L 461 614 Q 451 614 451 604 L 451 571 Q 451 561 461 561 Z" fill="#C0C0C0" opacity="0.2" stroke="none"/></g><g transform="translate(-42,-46) scale(1,1)"><path d="M 454 554 L 519.60986328125 554 Q 529.60986328125 554 529.60986328125 564 L 529.60986328125 597 Q 529.60986328125 607 519.60986328125 607 L 454 607 Q 444 607 444 597 L 444 564 Q 444 554 454 554 Z" fill="#6dceff" stroke="none"/></g><g transform="translate(-42,-46) scale(1,1)"><path d="M 454 554 L 519.60986328125 554 Q 529.60986328125 554 529.60986328125 564 L 529.60986328125 597 Q 529.60986328125 607 519.60986328125 607 L 454 607 Q 444 607 444 597 L 444 564 Q 444 554 454 554 Z" fill="none" stroke="#000000" stroke-miterlimit="10"/></g><g transform="translate(-42,-46) scale(1,1)"><g><path fill="none" stroke="none"/><text fill="#000000" font-family="Arial" font-size="13px" font-style="normal" font-weight="normal" stroke="none" text-decoration="none" x="469.82177734375" y="571.5">«call»</text></g></g><g transform="translate(-42,-46) scale(1,1)"><g><path fill="none" stroke="none"/><text fill="#000000" font-family="Arial" font-size="13px" font-style="normal" font-weight="bold" stroke="none" text-decoration="none" x="469.4599609375" y="586.5">action</text></g></g><g transform="translate(-42,-46) scale(1,1)"><path d="M 488 506 L 488 554" fill="none" stroke="#000000" stroke-miterlimit="10"/></g><g transform="translate(-42,-46) scale(1,1)"><path d="M 483.790482243984 543.8373251423759 L 488 554 L 492.209517756016 543.8373251423759" fill="none" stroke="#000000" stroke-miterlimit="10"/></g><g transform="translate(-42,-46) scale(1,1)"><path d="M 320 576 L 249 576" fill="none" stroke="#000000" stroke-miterlimit="10"/></g><g transform="translate(-42,-46) scale(1,1)"><path d="M 259.16267485762415 571.790482243984 L 249 576 L 259.16267485762415 580.209517756016" fill="none" stroke="#000000" stroke-miterlimit="10"/></g><g transform="translate(-42,-46) scale(1,1)"><path d="M 475 498 L 360 498 L 360 554" fill="none" stroke="#000000" stroke-miterlimit="10"/></g><g transform="translate(-42,-46) scale(1,1)"><path d="M 355.790482243984 543.8373251423759 L 360 554 L 364.209517756016 543.8373251423759" fill="none" stroke="#000000" stroke-miterlimit="10"/></g><g transform="translate(-42,-46) scale(1,1)"><path d="M 337 561 L 402.60986328125 561 Q 412.60986328125 561 412.60986328125 571 L 412.60986328125 604 Q 412.60986328125 614 402.60986328125 614 L 337 614 Q 327 614 327 604 L 327 571 Q 327 561 337 561 Z" fill="#C0C0C0" opacity="0.2" stroke="none"/></g><g transform="translate(-42,-46) scale(1,1)"><path d="M 330 554 L 395.60986328125 554 Q 405.60986328125 554 405.60986328125 564 L 405.60986328125 597 Q 405.60986328125 607 395.60986328125 607 L 330 607 Q 320 607 320 597 L 320 564 Q 320 554 330 554 Z" fill="#ffa3ff" stroke="none"/></g><g transform="translate(-42,-46) scale(1,1)"><path d="M 330 554 L 395.60986328125 554 Q 405.60986328125 554 405.60986328125 564 L 405.60986328125 597 Q 405.60986328125 607 395.60986328125 607 L 330 607 Q 320 607 320 597 L 320 564 Q 320 554 330 554 Z" fill="none" stroke="#000000" stroke-miterlimit="10"/></g><g transform="translate(-42,-46) scale(1,1)"><g><path fill="none" stroke="none"/><text fill="#000000" font-family="Arial" font-size="13px" font-style="normal" font-weight="normal" stroke="none" text-decoration="none" x="338.233154296875" y="571.5">«status»</text></g></g><g transform="translate(-42,-46) scale(1,1)"><g><path fill="none" stroke="none"/><text fill="#000000" font-family="Arial" font-size="13px" font-style="normal" font-weight="bold" stroke="none" text-decoration="none" x="351.9599609375" y="586.5">405</text></g></g><g transform="translate(-42,-46) scale(1,1)"><path d="M 232 450 L 232 568" fill="none" stroke="#000000" stroke-miterlimit="10"/></g><g transform="translate(-42,-46) scale(1,1)"><path d="M 227.790482243984 557.8373251423759 L 232 568 L 236.209517756016 557.8373251423759" fill="none" stroke="#000000" stroke-miterlimit="10"/></g><g transform="translate(-42,-46) scale(1,1)"><path d="M 530 568 L 552 568 L 552 640 L 232 640 L 232 593" fill="none" stroke="#000000" stroke-miterlimit="10"/></g><g transform="translate(-42,-46) scale(1,1)"><path d="M 236.209517756016 603.1626748576241 L 232 593 L 227.790482243984 603.1626748576241" fill="none" stroke="#000000" stroke-miterlimit="10"/></g><g transform="translate(-42,-46) scale(1,1)"><rect fill="#ffffff" height="17" stroke="none" width="17" x="459" y="607"/></g><g transform="translate(-42,-46) scale(1,1)"><path d="M 459 607 L 476 607 L 476 624 L 459 624 L 459 607 Z Z" fill="none" stroke="#000000" stroke-miterlimit="10"/></g><g transform="translate(-42,-46) scale(1,1)"><path d="M 467 622 L 467 609" fill="none" stroke="#000000" stroke-miterlimit="10"/></g><g transform="translate(-42,-46) scale(1,1)"><path d="M 467 622 L 464 619" fill="none" stroke="#000000" stroke-miterlimit="10"/></g><g transform="translate(-42,-46) scale(1,1)"><path d="M 467 622 L 470 619" fill="none" stroke="#000000" stroke-miterlimit="10"/></g><g transform="translate(-42,-46) scale(1,1)"><g><path fill="none" stroke="none"/><text fill="#000000" font-family="Arial" font-size="13px" font-style="normal" font-weight="normal" stroke="none" text-decoration="none" x="479.260498046875" y="621.5">response</text></g></g><g transform="translate(-42,-46) scale(1,1)"><path d="M 647 208.5 L 658.5 199 L 669 208.5 L 658.5 217 L 647 208.5" fill="#C0C0C0" opacity="0.2" stroke="none"/></g><g transform="translate(-42,-46) scale(1,1)"><path d="M 640 201 L 651 192 L 662 201 L 651 210 L 640 201" fill="#ff38ff" stroke="none"/></g><g transform="translate(-42,-46) scale(1,1)"><path d="M 640 201 L 651 192 L 662 201 L 651 210 L 640 201 L 640 201" fill="none" stroke="#000000" stroke-miterlimit="10"/></g><g transform="translate(-42,-46) scale(1,1)"><path d="M 625 351 L 690.60986328125 351 Q 700.60986328125 351 700.60986328125 361 L 700.60986328125 394 Q 700.60986328125 404 690.60986328125 404 L 625 404 Q 615 404 615 394 L 615 361 Q 615 351 625 351 Z" fill="#C0C0C0" opacity="0.2" stroke="none"/></g><g transform="translate(-42,-46) scale(1,1)"><path d="M 618 344 L 683.60986328125 344 Q 693.60986328125 344 693.60986328125 354 L 693.60986328125 387 Q 693.60986328125 397 683.60986328125 397 L 618 397 Q 608 397 608 387 L 608 354 Q 608 344 618 344 Z" fill="#ffa3ff" stroke="none"/></g><g transform="translate(-42,-46) scale(1,1)"><path d="M 618 344 L 683.60986328125 344 Q 693.60986328125 344 693.60986328125 354 L 693.60986328125 387 Q 693.60986328125 397 683.60986328125 397 L 618 397 Q 608 397 608 387 L 608 354 Q 608 344 618 344 Z" fill="none" stroke="#000000" stroke-miterlimit="10"/></g><g transform="translate(-42,-46) scale(1,1)"><g><path fill="none" stroke="none"/><text fill="#000000" font-family="Arial" font-size="13px" font-style="normal" font-weight="normal" stroke="none" text-decoration="none" x="626.233154296875" y="361.5">«status»</text></g></g><g transform="translate(-42,-46) scale(1,1)"><g><path fill="none" stroke="none"/><text fill="#000000" font-family="Arial" font-size="13px" font-style="normal" font-weight="bold" stroke="none" text-decoration="none" x="639.9599609375" y="376.5">404</text></g></g><g transform="translate(-42,-46) scale(1,1)"><path d="M 560 296 L 560 203 L 640 203" fill="none" stroke="#000000" stroke-miterlimit="10"/></g><g transform="translate(-42,-46) scale(1,1)"><path d="M 629.8373251423759 207.209517756016 L 640 203 L 629.8373251423758 198.790482243984" fill="none" stroke="#000000" stroke-miterlimit="10"/></g><g transform="translate(-42,-46) scale(1,1)"><path d="M 651 210 L 651 344" fill="none" stroke="#000000" stroke-miterlimit="10"/></g><g transform="translate(-42,-46) scale(1,1)"><path d="M 646.790482243984 333.83732514237585 L 651 344 L 655.209517756016 333.83732514237585" fill="none" stroke="#000000" stroke-miterlimit="10"/></g><g transform="translate(-42,-46) scale(1,1)"><path d="M 662 200 L 720 200 L 720 568" fill="none" stroke="#000000" stroke-miterlimit="10"/></g><g transform="translate(-42,-46) scale(1,1)"><path d="M 715.790482243984 557.8373251423759 L 720 568 L 724.209517756016 557.8373251423759" fill="none" stroke="#000000" stroke-miterlimit="10"/></g><g transform="translate(-42,-46) scale(1,1)"><g><path fill="none" stroke="none"/><text fill="#000000" font-family="Arial" font-size="13px" font-style="normal" font-weight="normal" stroke="none" text-decoration="none" x="654.5" y="194.5"> [controller]</text></g></g><g transform="translate(-42,-46) scale(1,1)"><path d="M 651 397 L 651 576 L 704 576" fill="none" stroke="#000000" stroke-miterlimit="10"/></g><g transform="translate(-42,-46) scale(1,1)"><path d="M 693.8373251423759 580.209517756016 L 704 576 L 693.8373251423758 571.790482243984" fill="none" stroke="#000000" stroke-miterlimit="10"/></g></g></svg>