<?xml version="1.0" encoding="UTF-8" standalone="no"?><svg xmlns="http://www.w3.org/2000/svg" xmlns:xlink="http://www.w3.org/1999/xlink" height="621" version="1.1" width="747"><defs/><g><g transform="translate(-47,-45) scale(1,1)"><rect fill="#ffffff" height="601" stroke="none" width="727" x="57" y="55"/></g><g transform="translate(-47,-45) scale(1,1)"><path d="M 57 55 L 784 55 L 784 656 L 57 656 L 57 55 Z Z" fill="none" stroke="#000000" stroke-miterlimit="10"/></g><g transform="translate(-47,-45) scale(1,1)"><path d="M 318 192 L 453.72998046875 192 L 453.72998046875 357 L 318 357" fill="#C0C0C0" opacity="0.2" stroke="none"/></g><g transform="translate(-47,-45) scale(1,1)"><path d="M 318 192 L 328 182 L 463.72998046875 182 L 453.72998046875 192" fill="#C0C0C0" opacity="0.2" stroke="none"/></g><g transform="translate(-47,-45) scale(1,1)"><path d="M 463.72998046875 182 L 453.72998046875 192 L 453.72998046875 357 L 463.72998046875 347" fill="#C0C0C0" opacity="0.2" stroke="none"/></g><g transform="translate(-47,-45) scale(1,1)"><path d="M 311 185 L 446.72998046875 185 L 446.72998046875 350 L 311 350" fill="#ffffff" stroke="none"/></g><g transform="translate(-47,-45) scale(1,1)"><path d="M 311 185 L 321 175 L 456.72998046875 175 L 446.72998046875 185" fill="#ffffff" stroke="none"/></g><g transform="translate(-47,-45) scale(1,1)"><path d="M 456.72998046875 175 L 446.72998046875 185 L 446.72998046875 350 L 456.72998046875 340" fill="#ffffff" stroke="none"/></g><g transform="translate(-47,-45) scale(1,1)"><path d="M 311 185 L 446.72998046875 185 L 446.72998046875 350 L 311 350 L 311 185" fill="none" stroke="#000000" stroke-miterlimit="10"/></g><g transform="translate(-47,-45) scale(1,1)"><path d="M 311 185 L 321 175 L 456.72998046875 175 L 446.72998046875 185 L 311 185" fill="none" stroke="#000000" stroke-miterlimit="10"/></g><g transform="translate(-47,-45) scale(1,1)"><path d="M 456.72998046875 175 L 446.72998046875 185 L 446.72998046875 350 L 456.72998046875 340 L 456.72998046875 175" fill="none" stroke="#000000" stroke-miterlimit="10"/></g><g transform="translate(-47,-45) scale(1,1)"><g><path fill="none" stroke="none"/><text fill="#000000" font-family="Arial" font-size="13px" font-style="normal" font-weight="bold" stroke="none" text-decoration="none" x="362.3818359375" y="204.5">public</text></g></g><g transform="translate(-47,-45) scale(1,1)"><path d="M 126 192 L 261.72998046875 192 L 261.72998046875 357 L 126 357" fill="#C0C0C0" opacity="0.2" stroke="none"/></g><g transform="translate(-47,-45) scale(1,1)"><path d="M 126 192 L 136 182 L 271.72998046875 182 L 261.72998046875 192" fill="#C0C0C0" opacity="0.2" stroke="none"/></g><g transform="translate(-47,-45) scale(1,1)"><path d="M 271.72998046875 182 L 261.72998046875 192 L 261.72998046875 357 L 271.72998046875 347" fill="#C0C0C0" opacity="0.2" stroke="none"/></g><g transform="translate(-47,-45) scale(1,1)"><path d="M 119 185 L 254.72998046875 185 L 254.72998046875 350 L 119 350" fill="#ffffff" stroke="none"/></g><g transform="translate(-47,-45) scale(1,1)"><path d="M 119 185 L 129 175 L 264.72998046875 175 L 254.72998046875 185" fill="#ffffff" stroke="none"/></g><g transform="translate(-47,-45) scale(1,1)"><path d="M 264.72998046875 175 L 254.72998046875 185 L 254.72998046875 350 L 264.72998046875 340" fill="#ffffff" stroke="none"/></g><g transform="translate(-47,-45) scale(1,1)"><path d="M 119 185 L 254.72998046875 185 L 254.72998046875 350 L 119 350 L 119 185" fill="none" stroke="#000000" stroke-miterlimit="10"/></g><g transform="translate(-47,-45) scale(1,1)"><path d="M 119 185 L 129 175 L 264.72998046875 175 L 254.72998046875 185 L 119 185" fill="none" stroke="#000000" stroke-miterlimit="10"/></g><g transform="translate(-47,-45) scale(1,1)"><path d="M 264.72998046875 175 L 254.72998046875 185 L 254.72998046875 350 L 264.72998046875 340 L 264.72998046875 175" fill="none" stroke="#000000" stroke-miterlimit="10"/></g><g transform="translate(-47,-45) scale(1,1)"><g><path fill="none" stroke="none"/><text fill="#000000" font-family="Arial" font-size="13px" font-style="normal" font-weight="bold" stroke="none" text-decoration="none" x="170.02001953125" y="204.5">config</text></g></g><g transform="translate(-47,-45) scale(1,1)"><g><path fill="none" stroke="none"/><text fill="#000000" font-family="Arial" font-size="24px" font-style="normal" font-weight="normal" stroke="none" text-decoration="none" x="86" y="116">Routing</text></g></g><g transform="translate(-47,-45) scale(1,1)"><path d="M 371.594091796875 233 L 399.034091796875 233 L 410.79409179687497 244.76 L 410.79409179687497 282 L 371.594091796875 282" fill="#C0C0C0" opacity="0.2" stroke="none"/></g><g transform="translate(-47,-45) scale(1,1)"><path d="M 364.594091796875 226 L 392.03409179687503 226 L 403.794091796875 237.76000000000002 L 403.794091796875 275 L 364.594091796875 275" fill="#a3e0ff" stroke="none"/></g><g transform="translate(-47,-45) scale(1,1)"><path d="M 364.594091796875 226 L 392.03409179687503 226 L 403.794091796875 237.76000000000002 L 403.794091796875 275 L 364.594091796875 275 L 364.594091796875 226" fill="none" stroke="#000000" stroke-miterlimit="10"/></g><g transform="translate(-47,-45) scale(1,1)"><path d="M 392.03409179687503 226 L 392.03409179687503 237.76000000000002 L 403.794091796875 237.76000000000002 L 392.03409179687503 226" fill="none" stroke="#000000" stroke-miterlimit="10"/></g><g transform="translate(-47,-45) scale(1,1)"><g><path fill="none" stroke="none"/><text fill="#000000" font-family="Arial" font-size="13px" font-style="normal" font-weight="bold" stroke="none" text-decoration="none" x="356.004150390625" y="294.5">index.php</text></g></g><g transform="translate(-47,-45) scale(1,1)"><path d="M 179.93271484375 233 L 207.37271484375003 233 L 219.13271484375002 244.76 L 219.13271484375002 282 L 179.93271484375 282" fill="#C0C0C0" opacity="0.2" stroke="none"/></g><g transform="translate(-47,-45) scale(1,1)"><path d="M 172.93271484374998 226 L 200.37271484375 226 L 212.13271484375002 237.76000000000002 L 212.13271484375002 275 L 172.93271484374998 275" fill="#e2e2e2" stroke="none"/></g><g transform="translate(-47,-45) scale(1,1)"><path d="M 172.93271484374998 226 L 200.37271484375 226 L 212.13271484375002 237.76000000000002 L 212.13271484375002 275 L 172.93271484374998 275 L 172.93271484374998 226" fill="none" stroke="#000000" stroke-miterlimit="10"/></g><g transform="translate(-47,-45) scale(1,1)"><path d="M 200.37271484375 226 L 200.37271484375 237.76000000000002 L 212.13271484375002 237.76000000000002 L 200.37271484375 226" fill="none" stroke="#000000" stroke-miterlimit="10"/></g><g transform="translate(-47,-45) scale(1,1)"><g><path fill="none" stroke="none"/><text fill="#000000" font-family="Arial" font-size="13px" font-style="normal" font-weight="bold" stroke="none" text-decoration="none" x="160.7373046875" y="294.5">routes.json</text></g></g><g transform="translate(-47,-45) scale(1,1)"><path d="M 510 192 L 723 192 L 723 541 L 510 541" fill="#C0C0C0" opacity="0.2" stroke="none"/></g><g transform="translate(-47,-45) scale(1,1)"><path d="M 510 192 L 520 182 L 733 182 L 723 192" fill="#C0C0C0" opacity="0.2" stroke="none"/></g><g transform="translate(-47,-45) scale(1,1)"><path d="M 733 182 L 723 192 L 723 541 L 733 531" fill="#C0C0C0" opacity="0.2" stroke="none"/></g><g transform="translate(-47,-45) scale(1,1)"><path d="M 503 185 L 716 185 L 716 534 L 503 534" fill="#ffffff" stroke="none"/></g><g transform="translate(-47,-45) scale(1,1)"><path d="M 503 185 L 513 175 L 726 175 L 716 185" fill="#ffffff" stroke="none"/></g><g transform="translate(-47,-45) scale(1,1)"><path d="M 726 175 L 716 185 L 716 534 L 726 524" fill="#ffffff" stroke="none"/></g><g transform="translate(-47,-45) scale(1,1)"><path d="M 503 185 L 716 185 L 716 534 L 503 534 L 503 185" fill="none" stroke="#000000" stroke-miterlimit="10"/></g><g transform="translate(-47,-45) scale(1,1)"><path d="M 503 185 L 513 175 L 726 175 L 716 185 L 503 185" fill="none" stroke="#000000" stroke-miterlimit="10"/></g><g transform="translate(-47,-45) scale(1,1)"><path d="M 726 175 L 716 185 L 716 534 L 726 524 L 726 175" fill="none" stroke="#000000" stroke-miterlimit="10"/></g><g transform="translate(-47,-45) scale(1,1)"><g><path fill="none" stroke="none"/><text fill="#000000" font-family="Arial" font-size="13px" font-style="normal" font-weight="bold" stroke="none" text-decoration="none" x="601.33544921875" y="204.5">src</text></g></g><g transform="translate(-47,-45) scale(1,1)"><path d="M 546 236 L 687 236 L 687 497 L 546 497" fill="#C0C0C0" opacity="0.2" stroke="none"/></g><g transform="translate(-47,-45) scale(1,1)"><path d="M 546 236 L 556 226 L 697 226 L 687 236" fill="#C0C0C0" opacity="0.2" stroke="none"/></g><g transform="translate(-47,-45) scale(1,1)"><path d="M 697 226 L 687 236 L 687 497 L 697 487" fill="#C0C0C0" opacity="0.2" stroke="none"/></g><g transform="translate(-47,-45) scale(1,1)"><path d="M 539 229 L 680 229 L 680 490 L 539 490" fill="#ffffff" stroke="none"/></g><g transform="translate(-47,-45) scale(1,1)"><path d="M 539 229 L 549 219 L 690 219 L 680 229" fill="#ffffff" stroke="none"/></g><g transform="translate(-47,-45) scale(1,1)"><path d="M 690 219 L 680 229 L 680 490 L 690 480" fill="#ffffff" stroke="none"/></g><g transform="translate(-47,-45) scale(1,1)"><path d="M 539 229 L 680 229 L 680 490 L 539 490 L 539 229" fill="none" stroke="#000000" stroke-miterlimit="10"/></g><g transform="translate(-47,-45) scale(1,1)"><path d="M 539 229 L 549 219 L 690 219 L 680 229 L 539 229" fill="none" stroke="#000000" stroke-miterlimit="10"/></g><g transform="translate(-47,-45) scale(1,1)"><path d="M 690 219 L 680 229 L 680 490 L 690 480 L 690 219" fill="none" stroke="#000000" stroke-miterlimit="10"/></g><g transform="translate(-47,-45) scale(1,1)"><g><path fill="none" stroke="none"/><text fill="#000000" font-family="Arial" font-size="13px" font-style="normal" font-weight="bold" stroke="none" text-decoration="none" x="581.82275390625" y="248.5">Controller</text></g></g><g transform="translate(-47,-45) scale(1,1)"><path d="M 600.225927734375 390 L 627.665927734375 390 L 639.425927734375 401.76 L 639.425927734375 439 L 600.225927734375 439" fill="#C0C0C0" opacity="0.2" stroke="none"/></g><g transform="translate(-47,-45) scale(1,1)"><path d="M 593.225927734375 383 L 620.665927734375 383 L 632.425927734375 394.76 L 632.425927734375 432 L 593.225927734375 432" fill="#6dceff" stroke="none"/></g><g transform="translate(-47,-45) scale(1,1)"><path d="M 593.225927734375 383 L 620.665927734375 383 L 632.425927734375 394.76 L 632.425927734375 432 L 593.225927734375 432 L 593.225927734375 383" fill="none" stroke="#000000" stroke-miterlimit="10"/></g><g transform="translate(-47,-45) scale(1,1)"><path d="M 620.665927734375 383 L 620.665927734375 394.76 L 632.425927734375 394.76 L 620.665927734375 383" fill="none" stroke="#000000" stroke-miterlimit="10"/></g><g transform="translate(-47,-45) scale(1,1)"><g><path fill="none" stroke="none"/><text fill="#000000" font-family="Arial" font-size="13px" font-style="normal" font-weight="bold" stroke="none" text-decoration="none" x="561.156005859375" y="451.5">FooController.php</text></g></g><g transform="translate(-47,-45) scale(1,1)"><path d="M 599.153173828125 287 L 626.593173828125 287 L 638.353173828125 298.76 L 638.353173828125 336 L 599.153173828125 336" fill="#C0C0C0" opacity="0.2" stroke="none"/></g><g transform="translate(-47,-45) scale(1,1)"><path d="M 592.153173828125 280 L 619.593173828125 280 L 631.353173828125 291.76 L 631.353173828125 329 L 592.153173828125 329" fill="#6dceff" stroke="none"/></g><g transform="translate(-47,-45) scale(1,1)"><path d="M 592.153173828125 280 L 619.593173828125 280 L 631.353173828125 291.76 L 631.353173828125 329 L 592.153173828125 329 L 592.153173828125 280" fill="none" stroke="#000000" stroke-miterlimit="10"/></g><g transform="translate(-47,-45) scale(1,1)"><path d="M 619.593173828125 280 L 619.593173828125 291.76 L 631.353173828125 291.76 L 619.593173828125 280" fill="none" stroke="#000000" stroke-miterlimit="10"/></g><g transform="translate(-47,-45) scale(1,1)"><g><path fill="none" stroke="none"/><text fill="#000000" font-family="Arial" font-size="13px" font-style="normal" font-weight="bold" stroke="none" text-decoration="none" x="561.168701171875" y="348.5">BarController.php</text></g></g><g transform="translate(-47,-45) scale(1,1)"><path d="M 349 256 L 232 256" fill="none" stroke="#000000" stroke-dasharray="3" stroke-miterlimit="10"/></g><g transform="translate(-47,-45) scale(1,1)"><path d="M 242.16267485762415 251.790482243984 L 232 256 L 242.16267485762415 260.209517756016" fill="none" stroke="#000000" stroke-miterlimit="10"/></g><g transform="translate(-47,-45) scale(1,1)"><g><path fill="none" stroke="none"/><text fill="#000000" font-family="Arial" font-size="13px" font-style="normal" font-weight="normal" stroke="none" text-decoration="none" x="255.5" y="155.5">«include»</text></g></g><g transform="translate(-47,-45) scale(1,1)"><path d="M 419 256 L 480 256 L 480 304 L 552 304" fill="none" stroke="#000000" stroke-dasharray="3" stroke-miterlimit="10"/></g><g transform="translate(-47,-45) scale(1,1)"><path d="M 541.8373251423759 308.209517756016 L 552 304 L 541.8373251423758 299.790482243984" fill="none" stroke="#000000" stroke-miterlimit="10"/></g><g transform="translate(-47,-45) scale(1,1)"><path d="M 419 256 L 480 256 L 480 408 L 552 408" fill="none" stroke="#000000" stroke-dasharray="3" stroke-miterlimit="10"/></g><g transform="translate(-47,-45) scale(1,1)"><path d="M 541.8373251423759 412.209517756016 L 552 408 L 541.8373251423758 403.790482243984" fill="none" stroke="#000000" stroke-miterlimit="10"/></g><g transform="translate(-47,-45) scale(1,1)"><g><path fill="none" stroke="none"/><text fill="#000000" font-family="Arial" font-size="13px" font-style="normal" font-weight="normal" stroke="none" text-decoration="none" x="451.15087890625" y="155.5">«trigger»</text></g></g><g transform="translate(-47,-45) scale(1,1)"><path d="M 120 392 L 445 392 L 455 402 L 455 610 L 120 610 L 120 392" fill="#ffff00" stroke="none"/></g><g transform="translate(-47,-45) scale(1,1)"><path d="M 120 392 L 445 392 L 455 402 L 455 610 L 120 610 L 120 392 L 120 392" fill="none" stroke="#000000" stroke-miterlimit="10"/></g><g transform="translate(-47,-45) scale(1,1)"><path d="M 445 392 L 445 402 L 455 402 L 445 392" fill="none" stroke="#000000" stroke-miterlimit="10"/></g><g transform="translate(-47,-45) scale(1,1)"><g><path fill="none" stroke="none"/><text fill="#000000" font-family="Arial" font-size="13px" font-style="normal" font-weight="normal" stroke="none" text-decoration="none" x="125" y="410">{</text></g></g><g transform="translate(-47,-45) scale(1,1)"><g><path fill="none" stroke="none"/><text fill="#000000" font-family="Arial" font-size="13px" font-style="normal" font-weight="normal" stroke="none" text-decoration="none" x="125" y="425">	"foo" : {</text></g></g><g transform="translate(-47,-45) scale(1,1)"><g><path fill="none" stroke="none"/><text fill="#000000" font-family="Arial" font-size="13px" font-style="normal" font-weight="normal" stroke="none" text-decoration="none" x="125" y="440">		"path": "/foo",</text></g></g><g transform="translate(-47,-45) scale(1,1)"><g><path fill="none" stroke="none"/><text fill="#000000" font-family="Arial" font-size="13px" font-style="normal" font-weight="normal" stroke="none" text-decoration="none" x="125" y="455">		"method": "get",</text></g></g><g transform="translate(-47,-45) scale(1,1)"><g><path fill="none" stroke="none"/><text fill="#000000" font-family="Arial" font-size="13px" font-style="normal" font-weight="normal" stroke="none" text-decoration="none" x="125" y="470">		"controller": "App\\Controller\\Foo",</text></g></g><g transform="translate(-47,-45) scale(1,1)"><g><path fill="none" stroke="none"/><text fill="#000000" font-family="Arial" font-size="13px" font-style="normal" font-weight="normal" stroke="none" text-decoration="none" x="125" y="485">		"action": "read"</text></g></g><g transform="translate(-47,-45) scale(1,1)"><g><path fill="none" stroke="none"/><text fill="#000000" font-family="Arial" font-size="13px" font-style="normal" font-weight="normal" stroke="none" text-decoration="none" x="125" y="500">	},</text></g></g><g transform="translate(-47,-45) scale(1,1)"><g><path fill="none" stroke="none"/><text fill="#000000" font-family="Arial" font-size="13px" font-style="normal" font-weight="normal" stroke="none" text-decoration="none" x="125" y="515">	"bar": {</text></g></g><g transform="translate(-47,-45) scale(1,1)"><g><path fill="none" stroke="none"/><text fill="#000000" font-family="Arial" font-size="13px" font-style="normal" font-weight="normal" stroke="none" text-decoration="none" x="125" y="530">		"path": "/bar",</text></g></g><g transform="translate(-47,-45) scale(1,1)"><g><path fill="none" stroke="none"/><text fill="#000000" font-family="Arial" font-size="13px" font-style="normal" font-weight="normal" stroke="none" text-decoration="none" x="125" y="545">		"method": "post",</text></g></g><g transform="translate(-47,-45) scale(1,1)"><g><path fill="none" stroke="none"/><text fill="#000000" font-family="Arial" font-size="13px" font-style="normal" font-weight="normal" stroke="none" text-decoration="none" x="125" y="560">		"controller": "App\\Controller\\Bar",</text></g></g><g transform="translate(-47,-45) scale(1,1)"><g><path fill="none" stroke="none"/><text fill="#000000" font-family="Arial" font-size="13px" font-style="normal" font-weight="normal" stroke="none" text-decoration="none" x="125" y="575">		"action": "create"</text></g></g><g transform="translate(-47,-45) scale(1,1)"><g><path fill="none" stroke="none"/><text fill="#000000" font-family="Arial" font-size="13px" font-style="normal" font-weight="normal" stroke="none" text-decoration="none" x="125" y="590">	}</text></g></g><g transform="translate(-47,-45) scale(1,1)"><g><path fill="none" stroke="none"/><text fill="#000000" font-family="Arial" font-size="13px" font-style="normal" font-weight="normal" stroke="none" text-decoration="none" x="125" y="605">}</text></g></g><g transform="translate(-47,-45) scale(1,1)"><path d="M 192 392 L 192 300" fill="none" stroke="#000000" stroke-dasharray="3" stroke-miterlimit="10"/></g></g></svg>